<svg width="1070" height="1367" viewBox="0 0 1070 1367" fill="none" xmlns="http://www.w3.org/2000/svg">
<path fill-rule="evenodd" clip-rule="evenodd" d="M207.451 12.9712C204.47 20.1085 202.03 28.1011 202.026 30.7342C202.023 38.9509 181.021 80.0381 173.6 86.3462C160.325 97.6367 141.206 100.849 73.5523 103.164C36.3272 104.438 4.60199 106.641 3.04768 108.061C-1.31636 112.046 -0.849322 935.583 3.52593 960.509C15.1235 1026.52 62.9673 1097.19 137.802 1158.84C204.234 1213.57 263.399 1242.39 388.548 1280.97C445.441 1298.51 468.494 1310.97 499.312 1340.84C514.152 1355.23 528.238 1367 530.615 1367C539.26 1367 555.487 1356.01 571.927 1339.02C596.045 1314.1 625.402 1299.15 693.358 1277.18C810.974 1239.16 851.648 1220.16 911.934 1175.08C994.854 1113.08 1045.28 1046 1064.1 972.666C1070.29 948.524 1070.65 919.358 1069.46 528.524C1068.76 298.456 1067.08 109.14 1065.73 107.822C1064.37 106.503 1031.5 104.318 992.695 102.97C934.471 100.95 919.773 99.3025 908.627 93.5583C885.238 81.5021 870.655 62.7494 860.055 31.089L850.284 1.90851L531.579 0.952386L212.877 0L207.451 12.9712ZM509.882 40.4822C510.932 42.1852 479.916 66.1332 440.954 93.7039C401.991 121.275 355.414 154.283 337.446 167.057C319.478 179.83 291.328 199.516 274.889 210.803C258.449 222.093 232.388 240.708 216.975 252.174C201.563 263.64 180.546 278.669 170.271 285.567C159.996 292.469 128.051 315.047 99.2807 335.745C70.511 356.444 45.2907 372.851 43.2357 372.209C40.8519 371.462 39.4994 329.9 39.4994 257.436V143.833L96.2805 141.398C145.768 139.273 155.677 137.764 173.417 129.644C197.767 118.5 220.697 91.6871 230.116 63.347C234.177 51.1153 239.292 43.1787 244.452 41.0984C254.731 36.9527 507.337 36.3663 509.882 40.4822ZM833.616 66.5739C864.105 126.664 892.053 139.165 1004.31 142.929L1031.3 143.833L1033.26 409.681C1034.91 633.328 1034.4 676.312 1030.04 680.458C1020.48 689.556 1011.19 696.481 958.638 733.698C929.868 754.072 889.516 782.659 868.966 797.225C848.416 811.791 827.399 826.611 822.262 830.162C817.124 833.711 801.798 844.605 788.205 854.372C774.612 864.138 747.711 883.231 728.424 896.796C671.104 937.118 605.173 983.863 505.088 1055.14C453.164 1092.11 407.846 1124.05 404.379 1126.1C393.76 1132.39 368.372 1152.08 367.053 1155.05C366.365 1156.59 364.082 1157.85 361.975 1157.85C359.868 1157.85 343.252 1168.77 325.053 1182.12C306.853 1195.48 289.976 1206.4 287.543 1206.4C281.562 1206.4 224.538 1175.27 194.554 1155.63C166.643 1137.35 104.508 1078.74 84.4176 1051.73C56.7949 1014.6 42.5221 977.757 37.2762 930.021C35.2362 911.444 34.8252 821.77 36.2861 713.87L38.7895 529.465L67.8357 508.453C83.8123 496.897 146.785 452.146 207.773 409.008C268.765 365.871 361.37 300.324 413.563 263.349C465.756 226.374 520.504 187.718 535.225 177.447C549.943 167.176 572.424 151.21 585.18 141.966C597.936 132.722 617.406 118.843 628.447 111.123C693.448 65.6775 719.725 46.9024 721.381 44.7137C725.625 39.104 736.561 37.8976 777.108 38.5587L819.755 39.2571L833.616 66.5739ZM783.03 205.544C754.26 226.25 728.558 246.03 725.913 249.504C722.685 253.743 721.459 265.62 722.176 285.724C723.2 314.244 723.641 315.596 731.656 314.748C738.545 314.02 740.062 315.704 740.055 324.085C740.051 329.71 741.026 367.324 742.222 407.671C743.589 453.759 743.04 481.864 740.75 483.28C737.406 485.349 717.644 442.241 717.644 432.878C717.644 430.641 715.246 423.515 712.316 417.042C709.387 410.57 700.891 387.626 693.44 366.057C675.192 313.243 669.128 299.652 662.709 297.187C659.649 296.014 648.033 302.128 636.088 311.192C624.43 320.04 600.955 337.011 583.917 348.903C544.222 376.605 541.386 381.045 542.791 413.296L543.905 438.887L556.048 440.056L568.191 441.229V598.788V756.35L554.961 766.901L541.734 777.452L542.817 806.117C544.461 849.483 542.541 850.073 644.293 775.025L674.676 752.616V720.869C674.676 690.792 674.236 689.059 666.27 687.928L657.863 686.736L657.975 602.026C658.05 547.437 659.335 519.452 661.596 523.317C663.523 526.615 677.845 567.792 693.422 614.822C708.998 661.851 724.134 702.74 727.06 705.691C731.674 710.344 735.228 709.116 753.969 696.391C788.713 672.798 821.313 646.557 823.745 640.226C824.986 636.999 825.998 548.024 825.998 442.506V250.654L838.141 239.315C849.825 228.405 850.284 226.882 850.284 198.978C850.284 172.816 849.552 169.876 842.812 168.935C838.19 168.293 815.383 182.257 783.03 205.544ZM441.155 460.65C418.793 468.142 400.934 479.578 310.384 544.393L222.58 607.244V640.715V674.183L232.855 673.108C238.508 672.518 243.212 673.358 243.313 674.975C243.414 676.592 243.739 747.446 244.03 832.426L244.564 986.933L232.604 996.76C220.801 1006.46 220.644 1007.02 220.678 1039.27C220.704 1064.13 221.915 1071.95 225.737 1071.95C228.502 1071.95 247.415 1059.74 267.771 1044.83C288.126 1029.92 318.693 1007.77 335.701 995.613C352.709 983.449 367.509 969.966 368.592 965.652C369.676 961.334 370.053 946.929 369.429 933.64C368.409 911.833 367.479 909.364 359.89 908.284C351.603 907.108 351.483 906.309 351.483 851.474C351.483 798.756 351.917 795.454 359.815 788.097C369.167 779.387 382.678 774.95 388.634 778.629C391.204 780.216 392.583 808.149 392.583 858.566C392.583 952.487 393.741 955.926 418.939 936.703C428.075 929.73 449.842 914.051 467.31 901.857C521.774 863.836 520.071 866.17 518.823 831.242C517.81 802.879 517.287 801.217 509.624 802.009C501.68 802.831 501.471 801.68 500.283 750.912C499.211 705.104 498.142 697.735 491.222 688.447C486.903 682.658 479.655 677.369 475.115 676.693C462.333 674.803 462.184 667.528 474.506 646.639C496.147 609.955 502.813 552.229 491.6 498.645C487.598 479.515 483.548 470.245 476.512 464.098C465.83 454.768 460.319 454.23 441.155 460.65ZM390.315 581.118C394.085 590.937 392.818 658.247 388.578 673.515C384.767 687.237 361.605 717.134 354.786 717.134C350.826 717.134 350.404 593.779 354.342 587.964C362.58 575.8 386.523 571.243 390.315 581.118ZM1034.46 897.058C1032.99 946.488 1031.44 958.036 1023.05 981.693C1008.57 1022.55 992.343 1047.24 953.295 1087.83C882.42 1161.51 832.458 1190.77 704.164 1233.77C610.778 1265.07 575.111 1282.1 553.264 1305.79C544.951 1314.81 536.921 1322.13 535.419 1322.06C533.921 1321.99 524.289 1313.51 514.014 1303.19C502.887 1292.03 484.411 1279.14 468.33 1271.35C453.478 1264.14 440.487 1256.9 439.467 1255.24C438.443 1253.59 449.465 1244.02 463.958 1233.99C478.452 1223.95 507.412 1203.37 528.317 1188.25C549.222 1173.13 577.251 1153.38 590.609 1144.37C603.966 1135.35 631.959 1115.78 652.815 1100.89C686.622 1076.75 797.636 998.037 917.512 913.215C940.737 896.781 975.418 872.026 994.578 858.204C1015.28 843.268 1030.78 834.443 1032.79 836.444C1034.65 838.308 1035.4 865.434 1034.46 897.058Z" fill="#FFC400"/>
</svg>
